/* XPM */
static char *b9643f46e13a49b9b0afa556e11515ebqGbr0VbNhKkd0S8f[] = {
/* columns rows colors chars-per-pixel */
"64 64 52 1 ",
"  c #CCDAE3",
". c #CEDCE5",
"X c #CFDDE6",
"o c #CEDCE7",
"O c #CDDBE8",
"+ c #CFDDE8",
"@ c #D0DEE7",
"# c #D1DFE8",
"$ c #D0DEE9",
"% c #D1DFEA",
"& c #D0DEEB",
"* c #D0DDED",
"= c #D1DFEC",
"- c #D1DEEE",
"; c #D2DFEF",
": c #D2E0E9",
"> c #D3E1EA",
", c #D2E0EB",
"< c #D4E2EB",
"1 c #D3E1EC",
"2 c #D2E0ED",
"3 c #D3E1EE",
"4 c #D5E3EC",
"5 c #D4E2ED",
"6 c #D5E3EE",
"7 c #D4E2EF",
"8 c #D6E4ED",
"9 c #D7E5EE",
"0 c #D6E4EF",
"q c #D8E6EF",
"w c #D3E0F0",
"e c #D4E1F1",
"r c #D5E3F0",
"t c #D5E2F2",
"y c #D6E3F3",
"u c #D7E5F0",
"i c #D6E4F1",
"p c #D7E5F2",
"a c #D7E4F4",
"s c #D9E7F0",
"d c #D8E6F1",
"f c #D9E7F2",
"g c #D8E6F3",
"h c #D8E5F5",
"j c #D9E7F4",
"k c #DAE8F1",
"l c #DBE9F2",
"z c #DAE8F3",
"x c #DBE9F4",
"c c #DAE8F5",
"v c #DBE9F6",
"b c #DDEBF6",
/* pixels */
"611,%%%%66066116urrrrrur7rrrrruguuuukuuk000qq07>uggu333gg33&ugt&",
"166066,%666,%%16-1-1rr---,7,-,3r7r700777070700>#rugrrrggggg3ggg3",
"%16u061%ddu611ud1wraaur-rrrr,rru7<00q00<q0777<>=3,-,33u33g3,333&",
",,666611uuu666udrrruggr1rurrrruu770q007<07<700073,-3gg3,&3r-&&,2",
"0661660u%,66,%%%w11w1w1=-,77==77=>><7>>=>>>,0000cguuggg3,ggr33i3",
"zd0166dz,6udu61,uw111rr6rrr7,,77<77<<7<7=#$,7007g33r333,3gu,3i33",
"du06166066ddu661u66uuu06uuu0r770u0077u0u=#>>07>=3,,,,&,,33,,,u3&",
"616,,%%+%%,%+o%%1%16ru,%777<,=>700>==>0u077004>=uujurujbuuu,uju,",
",,0dd6%,dd0660ud,<6616<,6,,,%,<<7>,==>>770707>>@0,>>,><0,uuu,,uu",
"1,10u160zdu060uu0q0qu0q0006<660q0qu0uuur0000<7,7$$>#&>@#,,>>>$,,",
"6,%1610z66,111,,4444644044<<,<44><0u007>uu<>>700&>440>##004>##,0",
"01,,610d,1111,,%44<<,<44<<<,<<<4==>7>>=>,,>>>>07><044044d044>>40",
"016601,160060666844444480q08qq84077<7<70->>707<744#<>>44444>>#>#",
"066du1%%6166111,444<<444<444444<q07>>00q,,00q00<004>>44044<444>>",
"6160u1%1611,,,16<<<<<<<<::<<<:::7<>7>>777<770u77044444444<#440<#",
"61100110xzduudzd848qq884:<444<<<>770u77>07>>>,70###>4###..@#4>@ ",
"6,,%%,16d0,%6661,,<<<<::q84<<48q,,uuur60juu,,0ud>4444949444444##",
"duuuuuuu161161,%4<<::,<4::<::<::&$2,>>>&u,,$>,0u44444494sss49444",
"6600066616dd0666lq<::4ql@:4qq4:@6,,,,,66,,,>$,,u444##4>4444###44",
",161661,,6du61,6sq<::<qs:<4qq4<:kuuuuukj$>,,r,,0944###4444######",
"660u0066,16,++%6::::::::<<:::<<<0u,,,uuu2&,6066,ss44444s4949s444",
"66000066u06,,,6u::<4<<::q4<<<<48,,6,,,,u$,,,6,,644>###>444449444",
",,,,,,%1dd00uuu0448qq844q84<<4qq,0u6066u600006ru#######>4>444444",
"61,%%,,61,%166,o:<<<<<:<<::@::::,,,,u,,,dkuuuuuu>4449494sss944ss",
"0600uuddu,%6d611:44<::4s::<44<<:>$$$@2,,,,,,,,,,#<44##>4s94##444",
"66611116616uu11048444qqq<<4qq44<u,0,,,uk,,60uuu,444###4s>44>4#>#",
"16,,%%%%%,66,+%6<:@:48<:::<<<<::r0,6r,uu,60ukuu,s44#@#0s#449944#",
"616111,6,1606,16::::<<:@@::<::@:,,,,,uuuu,>,uu,us44##>4q#44994>#",
"111610uuu000dd06:48q4:<4444444440u6uuuuudu,$,,uu44<<44<<###>>>>>",
",,,166ud66,,0d6%:4qq:::444444444,,,6u6uuju,&,0du>>#<04>#s04>444s",
"111,160u+11%%6,+<<<::::<<<<<<:<<>$,,,,,6u,,,0000>>##><>#09404sss",
"66666600,dx066u0kq<<4q44q8844qqq,ruuduuu,>>,6,>>0#@#>>>###>>>#>#",
"u,,6uu,$,0uuu,,,#4>##444444###44u0,uuuu&&,uuuu,,uu3,33gg333ug333",
",,0,6,,,0uuu,,uk#>#>#444###>>4#4,,,,,0>$,,>,2>,,,333333urgug3ggu",
"$,uu,,,u,,,,,uuj4444444444444944,0uu06,,u0,,&,0u2&33333233333333",
">,6u6,,,$,,,,,ud444444###>4494440uuu6,uuuuu,>6uu&3rug332urr3333g",
",,,,u0,>$>,u,,,,#>4###XX####4###,,u,&$,,,,6,,,,,23ggg333gggggggj",
",,,,uu0&&,uku6,,44444>##44444494u606>,,u,,uuu00,3,33i333i333333u",
">&,r0u0,,uuuu0,,s4s4444499s9ssssdu0,,uuuuuuuuuuu333333ig32333333",
"@,6u0,,u,,ru0,uu44######44####>4u,,,,r,>u,60,6,6cgg3iggciigggg3g",
"$uduu,,uu,&,jju$4>4#44#4444>4>44u>$$,,,$,,>$,,06333333g333333333",
",,6u,,,,u,&>uk,$s444444444444444uuuuuuuuur,,,,uu3333gi3i33333333",
"r,,,0,,,,,,,06>>44>444#4#>>####>,6uu,,,uuuu,,uuui33i3333cg3333gc",
"uu,uuuu6,0uu0000#4#4>###########,ru,,,,,r,u,6,6u3gg33333gg3333gg",
"uu,6uuu6,uuu0,009494444449490400ju0uuuuu,66,00,uggi33333&233i32&",
"00,,6uu,6,,,>><0444444>444944400u0,,ud,,60,u0u0uggggggg333gggg33",
",,uuu,6u,,,,,,004#4#####444444,,,,,,,,,>,,uu,uu0iig333333gggggg3",
",ukjuuuuuu,,uuq0q4040404040404ru,uuu,>,u,,,,,,,,22232&3&222&&&23",
",,6,,600,6uu,$>ugu33ru33ju33iu3,>uuu,$,uu,,,uuu,,,3,,,,,uuu$,kj,",
"u60u6uuuu,,u,$,jg3,&333333332233,,u0>$$$,0,,uuuu,,,,,,,,ruu,6uuu",
"u,,6,uuu066u,>,ug3333u3i33gu323g,u0,,,,,,u,uu,uu,,,3,,,,,,$,u,,,",
",,,,,,,r666,,,,ug3333r3333gug3gg,,,uuguu,0uuu,uuuuuuuuuu,$$uu,$6",
",,,,,,,,,ur,,,uu3332333332&33333,$&,,uu,,0uu0,uuuuuuuuuuu>,jj0,u",
"u,33,uu3uur,,,u,33ggg3igg3&2ggi3uuuuuu,,,u00,,,u,,3r,,3r,2,,0,,0",
"uu3uuggg3gg&33u33ggcg3ggggigiii3uujku,,,u0,0uu0ur3r3r3r3,33&,rr,",
"333r333g3g3&3ur2O&333&33&3i32&23,0uu,,,0uu,,uu,,u3u3u3u3gjg33cju",
"g3&33gg3gjcg33gg3333gg33,gcjt&33,,,,uu,>u,&,0u,,33&3333333ig3gi3",
"333333g3rrg3333gi3333gg3gjccgu3guuuuuuu,,,,0,,0,g33333ig&3333333",
"333333ti333,333333333333gig33333,,,uu3,,>,uu,,,ui333333i33i3g3gg",
"3igi333gu3&33gg3&3gi333gg3333333,,,,,u,,,0,u,,uu3333333*guggggig",
"3tat*wtttw**aatt3gggg3gccg33uggguu,uuuu,u,,,uuu33t3w*w***twttttw",
"ttttt*ttwww*w3ww33333333g333333guu,,,u00u,,,uuu,ttttttttw*ttt3wt",
"htt*ttttwttww*wt3&&3233333i3&&3g,,>$,,,,0,,u,uu3wwttttttwtattatt",
"ht*tttw*tahtt*tag333ggg333gg333juu0,,uuu,uuu,,3g**wtttw*****ww**"
};
