/* XPM */
static char *_46982e673734fe6ed0a173b1b1ee454RAHod7aP0wrig58Y[] = {
/* columns rows colors chars-per-pixel */
"64 64 195 2 ",
"   c None",
".  c #020204",
"X  c #060708",
"o  c #070809",
"O  c #0C0C0B",
"+  c #090707",
"@  c #110E0D",
"#  c #1A0D0D",
"$  c #11100F",
"%  c #0D0E11",
"&  c #0D141D",
"*  c #0C1114",
"=  c #121212",
"-  c #1E1A15",
";  c #191D19",
":  c #1C1211",
">  c #341A0E",
",  c #231313",
"<  c #2B1515",
"1  c #2C1817",
"2  c #27191B",
"3  c #331915",
"4  c #321A18",
"5  c #3E1E1C",
"6  c #3A1B13",
"7  c #1E221D",
"8  c #2A231F",
"9  c #3E2216",
"0  c #32221F",
"q  c #0E1925",
"w  c #111727",
"e  c #111D32",
"r  c #16252B",
"t  c #252B25",
"y  c #242823",
"u  c #342C24",
"i  c #392924",
"p  c #2C322B",
"a  c #3D332B",
"s  c #35352C",
"d  c #262F33",
"f  c #333B32",
"g  c #363C38",
"h  c #2F3930",
"j  c #40191E",
"k  c #411F0E",
"l  c #44211F",
"z  c #44221A",
"x  c #572B19",
"c  c #411720",
"v  c #482220",
"b  c #5C2A25",
"n  c #5F2B28",
"m  c #542724",
"M  c #47382B",
"N  c #59223E",
"B  c #483731",
"V  c #573B2A",
"C  c #632D27",
"Z  c #662E2A",
"A  c #692F2B",
"S  c #6D322C",
"D  c #6A3324",
"F  c #73352B",
"G  c #7D3A2A",
"H  c #793A28",
"J  c #733B33",
"K  c #753732",
"L  c #6F3831",
"P  c #3A4539",
"I  c #494639",
"U  c #514534",
"Y  c #57503E",
"T  c #7F4A3D",
"R  c #7A4338",
"E  c #62523D",
"W  c #7F4024",
"Q  c #0F334E",
"!  c #1E3879",
"~  c #4A5546",
"^  c #4D5A4A",
"/  c #475445",
"(  c #515F4E",
")  c #444F41",
"_  c #556653",
"`  c #5A6A57",
"'  c #5C6E5A",
"]  c #586855",
"[  c #586955",
"{  c #60725D",
"}  c #6F664F",
"|  c #697B65",
" . c #677A64",
".. c #833F2A",
"X. c #B7373B",
"o. c #8C4527",
"O. c #8B442B",
"+. c #844126",
"@. c #9A4826",
"#. c #95482A",
"$. c #9D4D2A",
"%. c #93472B",
"&. c #A14E2A",
"*. c #A4502B",
"=. c #AA532C",
"-. c #AA5F39",
";. c #FA5E0F",
":. c #EE5B1C",
">. c #E75A1F",
",. c #F45E15",
"<. c #F15E19",
"1. c #F36016",
"2. c #EC621F",
"3. c #D84539",
"4. c #E95822",
"5. c #EA6021",
"6. c #93315E",
"7. c #9F315D",
"8. c #AC3847",
"9. c #BD324F",
"0. c #A6315B",
"q. c #BB3453",
"w. c #A62B47",
"e. c #8A2D62",
"r. c #8C3163",
"t. c #923062",
"y. c #C7344F",
"u. c #CB354C",
"i. c #CC3C46",
"p. c #D23E43",
"a. c #C53252",
"s. c #C83454",
"d. c #C52E4F",
"f. c #895743",
"g. c #945A47",
"h. c #AF4148",
"j. c #92634C",
"k. c #987F5D",
"l. c #946449",
"z. c #B66D5D",
"x. c #A37656",
"c. c #BA715E",
"v. c #BC764B",
"b. c #9E746C",
"n. c #BB686B",
"m. c #BB7661",
"M. c #73886F",
"N. c #758B72",
"B. c #7C9378",
"V. c #6E826A",
"C. c #829B7E",
"Z. c #AA8B66",
"A. c #B3946D",
"S. c #CB8C5F",
"D. c #EB8857",
"F. c #D8936B",
"G. c #CD8E61",
"H. c #E49B74",
"J. c #E38D70",
"K. c #C6A478",
"L. c #C4A277",
"P. c #D9A97D",
"I. c #EAA275",
"U. c #EDA87A",
"Y. c #F4AD7D",
"T. c #F0A477",
"R. c #1F3C82",
"E. c #1E4388",
"W. c #224392",
"Q. c #214B9D",
"!. c #214EA1",
"~. c #7D5489",
"^. c #1A7DD6",
"/. c #83598D",
"(. c #1681D6",
"). c #168EE9",
"_. c #1887E3",
"`. c #1591EE",
"'. c #0E97FC",
"]. c #1694F3",
"[. c #1097F9",
"{. c #859E81",
"}. c #DFB986",
"|. c #E6B88A",
" X c #F5BC89",
".X c #EDA785",
"XX c #EDC18C",
"oX c #F7C18B",
"OX c #F5C992",
"+X c #FBCD94",
"@X c #F1C790",
"#X c #FDD197",
"$X c #FED49A",
"%X c #FEDA9D",
"&X c #FEDCA0",
/* pixels */
"                                                      O O O O O O O O O O O +                                                   ",
"                                                      O O $ $ $ @ $ @ @ @ @ +                                                   ",
"                                              ; 7 2 y C C o.o.o.o.o.o.o.%.C n 8 ; 8 ;                                           ",
"                                            ] X O O : Z S $.$.$.&.&.&.$.$.S A , O O X (                                         ",
"                                        ] 7 u b C o.o.#.#.$.$.$.$.$.$.$.$.#.#.o.O.o.o.M t t y `                                 ",
"                                        ` . , S F $.$.$.$.$.$.$.$.$.$.$.$.$.$.$.$.$.$.9 o o . `                                 ",
"                                     .t a m C #.#.$.$.$.$.$.$.$.$.$.$.$.$.$.$.$.$.$.$.o.W W W V h f p |                         ",
"                                    M.. , A K $.$.$.$.$.$.$.$.$.$.$.$.$.$.$.$.$.$.$.$.$.$.&.*.x X o . ^                         ",
"                                    V.. 9 %.%.$.$.$.$.$.$.$.$.$.$.$.$.$.$.$.$.$.$.$.#.$.$.+.F Z m 1 X (                         ",
"                                    | . 9 *.$.$.$.$.$.$.$.$.$.$.$.$.$.$.$.$.$.$.$.$.$.$.*.G Z Z S 5 . ~                         ",
"                                    | . 9 *.$.$.$.$.$.$.$.$.$.$.$.$.$.$.$.$.$.$.$.$.$.+.F S S l , ~  .{                         ",
"                                    | . 9 *.$.$.$.$.$.$.$.$.$.$.$.$.$.$.$.$.$.$.$.$.$.H C A S 3 . P                             ",
"                                     .. 4 G +.$.$.$.$.$.$.$.$.$.$.$.$.$.$.$.$.$.$.$.$.H Z v < s                                 ",
"                                    ' . 1 A F $.$.$.$.$.$.$.$.$.#.$.$.$.$.$.$.$.$.$.*.H A 2 .                                   ",
"                                    ` . 1 S S G G G W $.$.$.$.$.$.$.$.$.$.$.$.$.$.$.$.O...D x U P I ~ '                         ",
"                                    ] . 2 Z Z Z Z Z L $.$.$.$.%.@.@.@.@.@.@.@.@.@.$.$.$.&.&.=.x . . . ~                         ",
"                                  P I 4 v A A Z Z Z A G +.G O.S.S.S.S.S.S.S.S.S.S.-.$.$.&.O...n 4 2 X ^                         ",
"                                P . < S S Z Z A Z A A Z Z A J +X$X$X%X%X&X%X%X$X%Xv.$.&.&.G Z A S 9 . ^                         ",
"                                  . 4 A Z Z Z Z Z Z Z A Z A J OX#X#X+XZ.Z.k.Z.}.$Xl.x H O.n 5 9 j I _ M.                        ",
"                                  . 1 S Z Z Z Z Z Z Z Z n Z J OX#X#XOX- . . . L.$XU X v S < . X . `                             ",
"                                f , v A Z Z Z Z Z Z L j.l.C J OX#X#X+X} E : o K.%XU X 1 l I ~ ~ I '                             ",
"                            ^ . 3 S Z Z Z Z Z Z A n T &XXXC J OX#X#X#X$X%Xu X K.%XU o o . `                                     ",
"                            | P B l b A Z Z Z Z Z Z O.#XXXf.g.OX#X#X#X#X#Xu o K.%XU X p f /                                     ",
"                                _ . 1 S Z Z Z Z Z Z T +X+XT.U.#X#X#X#X#X#Xu X L.$XU .                                           ",
"                                I # 5 S Z Z Z Z Z C T #XOXY.Y.#X#X#X#X#X#XE a P.%XU .                                           ",
"                            ^ . 4 S Z Z A Z Z Z Z Z T #X#X#X#X#X#X#X#X#X#X#X$X$X$XU .                                           ",
"                            ` t a m n A A Z Z Z Z Z R |.|.#X#X#X#X#X#X#X#X#X#X#X$XU .                                           ",
"                                ^ . 4 Z A A Z Z Z Z A C R #X#X#X#X#X#X#X#X$X#X#X$XU .                                           ",
"                                ~ ; i b C A Z Z Z Z Z C R @X+X#X#X#X#X#X#X|.}.}.|.Y ;                                           ",
"                                    ` X < A Z Z Z Z Z Z J I.I.#X#X#X#X#X#Xs O $ O _                                             ",
"                                    ^ = 0 C n n n A C Z J F.H.OX+X#X#X#X+XI - $ X                                               ",
"                                        ^ + O @ , A A Z A S R H.U.+X#X#X+X@XOXM X ^                                             ",
"                                          O = O : S A A S Z K H.I.OX+X@X@X@X@XU O                                               ",
"                                            ) X 2 e.6.9.9.9.y.c.c.c.m.0 7 7 - ^                                                 ",
"                                              X 2 t.6.a.a.a.s.c.c.c.z.- O $ o                                                   ",
"                                              X 6 4.4.:.:.:.:.2.2.i.q.2 O                                                       ",
"                                              X k 1.1.1.1.1.1.1.<.d.d., O                                                       ",
"                                        B.t B w.X.1.1.1.1.1.1.1.,.:.4.8.w.a y                                                   ",
"                                        {.. c s.p.1.1.1.1.1.1.1.,.1.<.u.a.< X                                                   ",
"                                        {.X c s.p.1.1.1.1.1.1.1.1.1.,.4.4.3 X                                                   ",
"                                        {.X c d.p.,.,.,.,.;.1.1.1.1.1.1.1.> o                                                   ",
"                                        {.. B .X.XD.D.p.i.8.h.:.1.,.1.1.1.> X                                                   ",
"                                        {.. U %XOXH.J.s.q.r.t.:.1.1.1.1.1.> o                                                   ",
"                                        {.. U %X#X X.X7.0.0.q.<.1.1.1.1.1.> o                                                   ",
"                                        C.. U $X#X$X|.e.t.a.y.<.1.1.1.1.1.3 o                                                   ",
"                                        {.. U $X#X$X|.e.t.a.y.3.3.<.1.1.1.> o                                                   ",
"                                        {.. U %X#X$X|.e.e.y.a.a.a.<.1.1.1.> o                                                   ",
"                                        C.. V  X X#X Xn.n.0.0.a.y.:.1.1.1.> o                                                   ",
"                                        B.. M T.Y.#X+XT.H.r.t.a.y.:.1.1.1.> o                                                   ",
"                                        ' _ ' f.x.#X+X XP.N N a.y.1.1.1.1.> o                                                   ",
"                                            N.. a #X#X#X}.O $ 9.u.;.;.;.1.> o                                                   ",
"                                            M.X M #X+XoXP.$ : ~./.b.b.b.b.2 +                                                   ",
"                                            C.. I $X+XT.F.$ & `.'.'.'.'.'.e X                                                   ",
"                                            C.. 8 A.Z.x.l.@ & ).].].].^.^.e X                                                   ",
"                                            C.. + X X . . + * `.].].].Q.W.& X                                                   ",
"                                            M.P h O $ e r Q Q `.].].`.R.! g t                                                   ",
"                                                 .+ w W.!.].].].].].].q O                                                       ",
"                                                  + q W.!.].].].]._.(.w O                                                       ",
"                                                ' X q W.!.].].].`.Q.W.* +                                                       ",
"                                                ` y d ! W._._.].`.E.! d t                                                       ",
"                                                    _ O & W.Q.`.`.& = {                                                         ",
"                                                      O & R.E.(.(.& $                                                           ",
"                                                      O O * % * % O =                                                           ",
"                                                      O O O O O O O =                                                           "
};