/* XPM */
static char *cf3ae85515314284908b09cdb9e3762ec4vCSAJRbo8oEQjR[] = {
/* columns rows colors chars-per-pixel */
"64 64 207 2 ",
"   c None",
".  c #030303",
"X  c #050708",
"o  c #06090A",
"O  c #0B0B0C",
"+  c #080806",
"@  c #140C0C",
"#  c #1A0D0E",
"$  c #0F100F",
"%  c #19120F",
"&  c #16100F",
"*  c #0A0B12",
"=  c #070911",
"-  c #0D1219",
";  c #141614",
":  c #1B1414",
">  c #241414",
",  c #271519",
"<  c #3C1E1A",
"1  c #331D16",
"2  c #291016",
"3  c #1D221D",
"4  c #2A221B",
"5  c #38241B",
"6  c #131D34",
"7  c #0D1923",
"8  c #2C1223",
"9  c #13213D",
"0  c #352A22",
"q  c #3A2D23",
"w  c #3F362A",
"e  c #393429",
"r  c #36382F",
"t  c #45221C",
"y  c #50260D",
"u  c #792E1D",
"i  c #491822",
"p  c #581B27",
"a  c #4B1B38",
"s  c #6E1E32",
"d  c #4A2522",
"f  c #592725",
"g  c #48392C",
"h  c #573B2E",
"j  c #403C32",
"k  c #622927",
"l  c #652D2A",
"z  c #692F2B",
"x  c #622629",
"c  c #6C312C",
"v  c #74362A",
"b  c #7B3A2A",
"n  c #702F35",
"m  c #44121E",
"M  c #3C4539",
"N  c #44483B",
"B  c #524534",
"V  c #594C39",
"C  c #60513D",
"Z  c #694B36",
"A  c #0F3652",
"S  c #15284B",
"D  c #163665",
"F  c #5B2142",
"G  c #662449",
"H  c #104165",
"J  c #124874",
"K  c #454E41",
"L  c #495748",
"P  c #585B49",
"I  c #5A534C",
"U  c #6C5A42",
"Y  c #7C4154",
"T  c #51614F",
"R  c #546452",
"E  c #5A6A57",
"W  c #5B6A57",
"Q  c #5F705C",
"!  c #786348",
"~  c #61745E",
"^  c #6E6C55",
"/  c #687C64",
"(  c #5E7161",
")  c #83380F",
"_  c #883A2B",
"`  c #A1372A",
"'  c #D73E3C",
"]  c #9D4D2A",
"[  c #93482A",
"{  c #8D4F3F",
"}  c #964D2F",
"|  c #A14F2B",
" . c #A4502B",
".. c #F55F13",
"X. c #ED5A1E",
"o. c #F46015",
"O. c #FC6412",
"+. c #F9620F",
"@. c #C34A3A",
"#. c #C9483C",
"$. c #DD4A33",
"%. c #D6433B",
"&. c #D94736",
"*. c #D05533",
"=. c #E95425",
"-. c #E34F2E",
";. c #D86837",
":. c #9C2D5E",
">. c #8A3D48",
",. c #B02F5A",
"<. c #A83756",
"1. c #A72F5D",
"2. c #832A64",
"3. c #872964",
"4. c #8D306E",
"5. c #CB364B",
"6. c #D33D42",
"7. c #C32D53",
"8. c #CD2E55",
"9. c #C53153",
"0. c #CC3254",
"q. c #CA3058",
"w. c #8B5A46",
"e. c #88504C",
"r. c #B74346",
"t. c #AE4148",
"y. c #806B4D",
"u. c #97644E",
"i. c #846E50",
"p. c #8B7455",
"a. c #857252",
"s. c #977E5B",
"d. c #9B6650",
"f. c #B56F46",
"g. c #A56B54",
"h. c #A47458",
"j. c #B56F55",
"k. c #994962",
"l. c #AA526A",
"z. c #BB716D",
"x. c #C94240",
"c. c #E67149",
"v. c #DD7A69",
"b. c #C37F7E",
"n. c #C76D6A",
"m. c #C45C64",
"M. c #6E826A",
"N. c #73876F",
"B. c #758C72",
"V. c #7D9479",
"C. c #9A825F",
"Z. c #80987B",
"A. c #A88965",
"S. c #B98B66",
"D. c #B3936C",
"F. c #BA966E",
"G. c #BE9D72",
"H. c #B1805D",
"J. c #EE894F",
"K. c #CD8978",
"L. c #CC9976",
"P. c #EA9174",
"I. c #C9A478",
"U. c #D9A47C",
"Y. c #ECA377",
"T. c #F3A979",
"R. c #1D3B8E",
"E. c #223F8F",
"W. c #234293",
"Q. c #214D9F",
"!. c #22408F",
"~. c #1E5EB2",
"^. c #2050A3",
"/. c #1D65BB",
"(. c #5A7995",
"). c #1C6DC4",
"_. c #1B74CC",
"`. c #137CC8",
"'. c #1A7BD4",
"]. c #3C7FD1",
"[. c #237BC8",
"{. c #6A8A9E",
"}. c #1595F4",
"|. c #1699FC",
" X c #3F83CC",
".X c #4589C4",
"XX c #4084CB",
"oX c #89A68E",
"OX c #D39684",
"+X c #DDA287",
"@X c #DCB683",
"#X c #E6AB86",
"$X c #E7B688",
"%X c #F3B482",
"&X c #F7BD88",
"*X c #EE9780",
"=X c #F6C18C",
"-X c #F9C58E",
";X c #F8C88F",
":X c #FAC891",
">X c #FDD197",
",X c #FED59A",
"<X c #FED499",
"1X c #FED99D",
"2X c #FEDA9D",
"3X c #FEDEA0",
"4X c #FEE2A2",
/* pixels */
"                                                                                                                                ",
"                                                    B.$ ; ; ; ; ; ; ; ; ; ; ; ; L                                               ",
"                                                  Q / @ @ % % % : % % % & % % O Q                                               ",
"                                          O ; ; ; - 1 z b ] [ } ] ] } [ ] ] v l 1 ; ; O T                                       ",
"                                          @ % % % % < c b ] ] | ] ] ] ] ] ] b c 1 % % @ W                                       ",
"                                  O $ O 5 ] ] ] ] ] ] ] ] ] ] ] ] | ] ] ] ] ] ] } ] v l , O                                     ",
"                                  + O & t ] } ] ] ] ] ] ] ] ] ] ] ] ] | | ] ] ] ] | b c 1 @ E                                   ",
"                                  X > z l k b | ] ] ] ] ] | ] ] ] ] ] ] ] ] ] ] ] ] | ] v z > +                                 ",
"                                  3 0 f f z v } ] ] ] ] ] ] ] ] | ] ] ] ] ] ] ] ] ] ] | b v > +                                 ",
"                                      X > c l l b | ] | ] | ] ] ] ] ] ] ] ] ] | ] ] ] ] ] | 1 .                                 ",
"                                      3 0 f f l b ] ] ] ] ] ] ] ] ] ] ] ] ] ] ] ] ] ] ] ] | 1 .                                 ",
"                                          . , c b ] ] ] ] ] ] ] ] ] | ] ] ] ] ] ] ] ] ] ] ] 5 +                                 ",
"                                          > 5 v _ ] ] ] ] ] ] ] ] ] ] ] ] ] ] ] ] ] ] ] ] | 1 +                                 ",
"                                T + O X 1  .| ] ] ] ] ] ] ] ] ] ] ] ] ] ] ] ] ] ] | ] ] ] | 1 .                                 ",
"                                ~ O @ % t [ [ [ [ ] ] ] ] ] ] ] ] ] ] ] ] ] ] ] ] ] ] ] [ [ t %                                 ",
"                                E . > c z l l l b ] ] ] ] [ ] ] ] ] ] [ ] ] ] ] ] ] ] | b k l l # X                             ",
"                                  r w d f z z l v [ | f.f.f.f.f.f.f.f.f.f.f.f.f.f.f.} [ c l l z > X                             ",
"                                      . > c z l l k h.2X2X2X1X1X<X<X<X<X,X2X,X2X2X2Xd.k l l l z > X                             ",
"                                      r j d f l l k h.2X@XD.D.D.@X<X>X<XU.D.D.D.$X2Xu.k l l l z 1 > M                           ",
"                                        R . > k k k h.3Xp.. . . ! 1X<X2XU . . . C.3Xu.k l l l l z c # .                         ",
"                                        R . q d.{ f g.2XA.B 4 . i.2X2X2X! . 4 B G.2Xu.k w.u.v z d d N N                         ",
"                                        W . C 4XL.p d.2X<X3Xi.. ! 2X>X2XZ . C.3X,X2Xu.f I.2Xw.z # X ~                           ",
"                                        / . C 2XU.{ S.<X>X2Xi.. y.2X>X2XU . C.,X>X,Xj.w.#X,Xw.z < , R                           ",
"                                        / . C 2X=XY.%X>X>X2Xy.. y.2X>X,XC . s.2X>X,XT.Y.-X<Xw.x c c # .                         ",
"                                        / . C 2X:XT.=X,X>X,XD.B C.#X&X3Xs.B L.<X>X>X&XT.:X2Xw.z d d K N                         ",
"                                        / . V 3X,X<X<X<X>X>X,X2XU.j.U.<X,X3X<X>X>X>X<X,X2X2Xw.z # .                             ",
"                                          L ^ C.F.&X=X<X>X>X>X>X#XL.%X>X>X>X>X>X>X>X-X&XD.s.h < r                               ",
"                                            M.. h T.%X<X>X>X>X>X<X2X1X1X<X>X>X>X>X>X%XT.g . X .                                 ",
"                                              L ^ w.D.<X>X>X>X,XI.i.p.a.I.<X<X>X>X,XA.w.5 X M M                                 ",
"                                                B.. U 3X<X<X>X,X! . . . p.3X>X>X,X4XV . X X                                     ",
"                                              E L X w p.D.&X-X,XF.! ! ! I.<X-X&XA.p.0 O O X                                     ",
"                                            W . . X X . Z T.&X>X2X2X2X2X,X,X%XT.B . o o o . /                                   ",
"                                          E I a x ) u s 4.n.z.OXK.U.U.U.K.b.z.z.>.s u ) f a I L                                 ",
"                                        R . 8 4.r.O.-.q.1.G Y 2.k.j.j.z.k.Y 3.3.,.8.=.O.<.4., .                                 ",
"                                        T X p #.*...X.$.6.x.x.@.*.;.;.;.*.@.5.r.*.$.X.o.*.#.t .                                 ",
"                                        L . y O.o...o.o.o.o.O.o.o.o.o.o.o.o.o...o.o.o.o.o.O.y .                                 ",
"                                      L I s ` ..o.o.o.o.o.o.o.o.o.X.o.o.o...o.o.o.o.o.o...o.` s I M                             ",
"                                    / . i 8.' ....o.o.o.o...o...o.o.o.o.o.o.o...o.o.o.o.....5.8.2 .                             ",
"                                    B.. g P.P.J.c.%.%.%.-.O.o.o.o.o.o.o.o.o.o.o.-.%.%.%.c.J.P.P.d X                             ",
"                                    N.. V 1X&XY.v.7.9.q.x.O.X.o.o.o.o.o.X.o.o.o.%.q.7.7.v.Y.-X3XN X                             ",
"                                    N.. V ,X:X=XY.v.m.:.@...o.o.o.o.o.o.o.o.o.o.r.:.n.v.#X&X>X,Xg X                             ",
"                                    B.. B ,X>X,X=XT.b.2. ...o.o.o.o.o.X.X.o.o.o.t.2.v.T.&X>X>X,Xj . R                           ",
"                                  M P g.S.<X>X<X+Xl.l.,.x.....o.o.o.o.o.o.o.o.o.#.,.k.l.$X3X>X>XS.d.P M                         ",
"                                M.. g T.T.>X>X<XK.2.1.9.$...o.o.o.o.o.o.o.o.o.o.%.9.:.2.OX,X>X>XT.T.5 X                         ",
"                                M.. B :X>X>X>X<XOX2.1.9.&.o.o.o.o.o.o.o.o.o.o.o.=.=.<.3.+X<X>X>X;X-Xg X                         ",
"                                / . B ,X<X>X>X2XOX2.1.9.&.o.o.o.o.o.o.o.o.o.o.o.o.+.t.2.+X2X>X>X>X,Xw X                         ",
"                                M.X B ,X<X,X#Xl.Y , s 0.5.%.6.6.$.o.o.o.o.o.o.o.-.6.x 8 e.l.$X,X>X<Xw X                         ",
"                                M.X B 2X>X2XOX3.F X p 0.5.,.q.7.&.o.o.o.o.o.o.o.%.q.i X G 3.+X3X>X,Xw X                         ",
"                                M.X B <X>X,XD.2 : X p 0.9.9.%.=.=...o.......$.6.5.0.i o : , I.2X>X<Xw X                         ",
"                                / X B <X<X,XA.X * X p 0.5.7.$.+.o.........+.&.7.5.0.i X = X F.2X>X<Xw O                         ",
"                                M.X g %X%X1XA.. A `.[.].].].XX.X.X.XXX.X.X.X].]. X].[.`.S . H.T.;X<Xw X                         ",
"                                / X g T.%X1XA.X H |.}.}.}.}.}.}.|.}.}.}.}.}.}.}.}.}.}.|.A X j.T.;X<Xg X                         ",
"                                B.+ : 5 q q 4 + H |.}.}.}.}.}.}.}.}.}.}.}.}.}.}.}.}.}.}.A + 4 5 0 e ; O                         ",
"                                B.o O O O O O + D |.}.}.}.}.}.}.}.}.}.}.}.}.}.}.}.}.}.|.A + + + O O O O                         ",
"                                          / / + S ^.).}.}.}._.Q.^.^.Q.Q.^.^.'.}.}.}.).^.9 + K                                   ",
"                                            Z.+ 9 W./.}.}.}.).!.W.W.W.!.W.E._.}.}.}.~.E.9 X                                     ",
"                                            Z.. S W./.}.}.}.).R.{.oXoXoX(.R._.}.}.}.~.W.6 .                                     ",
"                                            V.+ 6 W./.|.}.}.).R.{.      (.R._.}.}.|.~.!.6 +                                     ",
"                                                W = J |._.Q.D O ~       T O D ^.'.|.D O N                                       ",
"                                                N . D }.).E.S . Q       R . D E._.|.A .                                         ",
"                                                  X * 7 - - * X ~     / W X * - - 7 - X                                         ",
"                                                W X O O O O ; O W     N.W $ @ O O $ O O W                                       ",
"                                            V.; ; O O O O X W             / L X O O O O ; ; T                                   ",
"                                            B.X O @ O O O X Q               L X O O O O O O R                                   "
};