/* XPM */
static char *_c9a1fd9bbb345eeebd0a7ca97e95086Yewyu1fmlfcVFIcD[] = {
/* columns rows colors chars-per-pixel */
"64 64 207 2 ",
"   c None",
".  c #020203",
"X  c #080604",
"o  c #0B0906",
"O  c #080708",
"+  c #0B0C0C",
"@  c #050908",
"#  c #130D0E",
"$  c #190E0E",
"%  c #0E100E",
"&  c #19110E",
"*  c #1C0D11",
"=  c #0F131D",
"-  c #121312",
";  c #1C1211",
":  c #191C19",
">  c #161816",
",  c #0C0F1D",
"<  c #211511",
"1  c #271812",
"2  c #251617",
"3  c #3B1C1A",
"4  c #341918",
"5  c #220E10",
"6  c #30271F",
"7  c #0F1421",
"8  c #0D1D28",
"9  c #131B30",
"0  c #311626",
"q  c #38332A",
"w  c #31322B",
"e  c #19202C",
"r  c #411F1D",
"t  c #44211E",
"y  c #452215",
"u  c #592D1A",
"i  c #491B37",
"p  c #4C2421",
"a  c #512623",
"s  c #5C2B24",
"d  c #542824",
"f  c #493429",
"g  c #4D3E33",
"h  c #662E2A",
"j  c #682F2B",
"k  c #632F25",
"l  c #6E3820",
"z  c #6C322D",
"x  c #6B3522",
"c  c #74362A",
"v  c #7C3A2A",
"b  c #7D3D25",
"n  c #772134",
"m  c #763935",
"M  c #673235",
"N  c #3F493D",
"B  c #3A4338",
"V  c #42483C",
"C  c #5C4735",
"Z  c #78463D",
"A  c #78533D",
"S  c #172851",
"D  c #1B3169",
"F  c #1C3470",
"G  c #571F40",
"H  c #5A2542",
"J  c #6B2D46",
"K  c #144271",
"L  c #384445",
"P  c #444F48",
"I  c #4A5546",
"U  c #4C5A4A",
"Y  c #465244",
"T  c #545A4C",
"R  c #675841",
"E  c #7C5943",
"W  c #52614F",
"Q  c #546452",
"!  c #596956",
"~  c #5E6E5B",
"^  c #5E705B",
"/  c #61735E",
"(  c #6A6A55",
")  c #6A7D66",
"_  c #823E2A",
"`  c #94273D",
"'  c #A2273E",
"]  c #973F13",
"[  c #A94415",
"{  c #8C442A",
"}  c #92472A",
"|  c #94482A",
" . c #9F4E2A",
".. c #9D4D2A",
"X. c #9A4B2A",
"o. c #82463C",
"O. c #A04F2A",
"+. c #A5512B",
"@. c #EE5B1D",
"#. c #EC5E13",
"$. c #F25F17",
"%. c #F15E18",
"&. c #F55916",
"*. c #FB5E0E",
"=. c #FC600C",
"-. c #F36016",
";. c #F36018",
":. c #F96216",
">. c #DA5528",
",. c #DD4A33",
"<. c #D74639",
"1. c #CB4F2C",
"2. c #E24E2C",
"3. c #E95623",
"4. c #EB5B22",
"5. c #E55426",
"6. c #EC6A33",
"7. c #9E2A43",
"8. c #99355C",
"9. c #8B334C",
"0. c #B92F54",
"q. c #A2335B",
"w. c #BB3154",
"e. c #B83557",
"r. c #A62D4C",
"t. c #8A2D64",
"y. c #852C63",
"u. c #8B3263",
"i. c #943260",
"p. c #CB2E4D",
"a. c #C93747",
"s. c #C22E54",
"d. c #C82F55",
"f. c #C53252",
"g. c #C83254",
"h. c #94584A",
"j. c #8B564D",
"k. c #A25E50",
"l. c #806C50",
"z. c #8F635C",
"x. c #907959",
"c. c #8E6A4F",
"v. c #BD6D56",
"b. c #B36C5C",
"n. c #B86556",
"m. c #AE655D",
"M. c #9C4466",
"N. c #AC5D72",
"B. c #A9546A",
"V. c #B76C6E",
"C. c #CF4E5B",
"Z. c #D0474B",
"A. c #D65565",
"S. c #C26F6E",
"D. c #CB7D6C",
"F. c #D86C66",
"G. c #6D8169",
"H. c #72876E",
"J. c #758A71",
"K. c #7E967A",
"L. c #9E8462",
"P. c #819A7D",
"I. c #AF8E68",
"U. c #D9957C",
"Y. c #D38E7B",
"T. c #EDA576",
"R. c #F5AA7C",
"E. c #F6A779",
"W. c #F1B17F",
"Q. c #E69B74",
"!. c #1F4093",
"~. c #155591",
"^. c #224293",
"/. c #254A98",
"(. c #21418E",
"). c #1F56A9",
"_. c #1F5CB2",
"`. c #204FA1",
"'. c #2051A3",
"]. c #136AA9",
"[. c #1E60B5",
"{. c #1B68BB",
"}. c #1474BB",
"|. c #515E9D",
" X c #737F96",
".X c #6F7B9B",
"XX c #606BAF",
"oX c #616CB0",
"OX c #4B67A7",
"+X c #1A7ED8",
"@X c #1579C4",
"#X c #77938B",
"$X c #1983DF",
"%X c #1788E5",
"&X c #0F98FD",
"*X c #0F96FA",
"=X c #1695F4",
"-X c #1297F8",
";X c #129AFB",
":X c #8CA788",
">X c #F5B884",
",X c #F8C38D",
"<X c #F6C08B",
"1X c #FDD197",
"2X c #FED499",
"3X c #FED99C",
"4X c #FEE0A2",
/* pixels */
"                                                              : + + + + + + + O N                                               ",
"                                                              : + + + + + + + + N                                               ",
"                                                      w % - - + + + + + + + + O B                                               ",
"                                                    / w ; < ; < < ; < < ; < ; & V                                               ",
"                                              N O % + d j | X.X.X.X.X.X.....} j p + + + # O U                                   ",
"                                            ^ V ; 1 1 k c X. .X. .X. . .....| x s 1 1 1 1 < T                                   ",
"                                          Y . p j }  . .X. . . . . .X. . .X. . ......... .O.u @ O @ N                           ",
"                                          V ; k c }  . . .X.X. . .X. .X. . . .X.........X.| s 5 ; .                             ",
"                                      I . t j { ................ .X. . . . .X. . . .X..._ h j j 4 .                             ",
"                                      ! . d c } ................X. . .X.X. . .X.X. .X.{ _ j s p q 6                             ",
"                                      ! . l +. .................X. . .X.X. . .X. . .{ h h j 3 .                                 ",
"                                      Q . l O. ................. . .X. . .X. . .X.X.{ h s r q                                   ",
"                                      Q @ l O................... .X.X. . .X.X. . . .{ j 3 .                                     ",
"                                      U . l O...................X. . . . . . .X.X. .} v x y q                                   ",
"                                      I . l O................... . . .X.X. . . . . . .O.O.+.u . . .                             ",
"                                      V 4 v O................... .X.X. . .X.X. .X. .} _ _ _ k 4 < @                             ",
"                                  N . t j { O. .................X. . . .X. . .X.O.O._ h h k h z 4 .                             ",
"                                  I . 3 j c v | ................ . .X.X. . .X. .| v v h h z a 4 q                               ",
"                                  U . p z h j { ..........O...O. . . . . . . . .} h h h h z 3 .                                 ",
"                              ! I g 3 s h h h c v v v v v v v v v v v v v v v v c h h h a 1 w                                   ",
"                              ! . 3 c j h h h h h h s h h k h h h h h h k h h h h h h h 3 .                                     ",
"                                ~ I < p j h h h h h j j h h h h h h h h h j h h h h m k.M .                                     ",
"                                  Q . r z h h h h h h h h h h j h h h h h h h h j z m S.A . B                                   ",
"                              U w f p s h h h h h h h h h h h h h h h h h h h h h x o.Q.j.. B                                   ",
"                              T . 3 j j h h h h j h h h j h h h h h h h h h h h h s h.T.c.. B                                   ",
"                                  U $ p j h h h h h h h h h h h h h h h h h h h h h o.Y.A . Y                                   ",
"                                  U . t h h h h h h h j h h h j h h h h h h h h h h o.b.Z . q                                   ",
"                                      I # ; ; a z h h h h h h h h h h h h h h j j z d 2 Y                                       ",
"                                      T + + + p h h j h h h h h h h h h j h h j h h p @ B                                       ",
"                                          N O # & d j j j h h h h j h h h h h j a # w                                           ",
"                                          Y @ + O a h z j h j h h h h h h z j h p . B                                           ",
"                                          Y O + + % # h.b.z h h h h j j c b.j.+ # + % > U                                       ",
"                                          Y # < & & ; k.b.m z z z z z z Z b.h.; & & & # T                                       ",
"                                      ! # H y.1.#.a.w.i.u.m.b.b.b.b.b.b.m.u.8.w.a.#.1.y.H + Q                                   ",
"                                      ! . J 8.>.-.<.a.8.8.v.v.v.v.v.v.v.n.8.8.a.<.;.>.8.M . W                                   ",
"                                      Q . [ ;.$.;.;.;.;.#.#.;.;.;.;.;.;.;.$.$.$.$.$.;.-.] . U                                   ",
"                                    / T * [ :.-.;.-.-.-.-.-.-.;.-.-.;.-.;.-.;.-.-.-.-.:.[ * T                                   ",
"                                  ~ @ n f.2.*.;.;.;.-.;.;.-.-.-.-.-.$.-.;.-.-.-.-.-.-.-.,.d.n . Q                               ",
"                                  / . 9.A.6.6.4.3.3.@.@.-.-.;.;.-.$.$.-.-.;.$.3.3.3.4.6.6.A.m . ^                               ",
"                                  / . L.3XW.T.C.s.f.f.@.-.;.;.-.-.-.-.-.-.-.3.f.f.s.A.Q.>X3Xx.. !                               ",
"                                  / . L.3X>XW.F.C.e.e.4.-.-.-.-.-.-.-.-.$.-.3.0.e.C.F.W.>X3Xx.. !                               ",
"                                  / X L.3X1X1XW.T.B.y.5.-.-.-.-.-.$.$.-.$.$.>.t.B.T.W.2X2X2Xx.. !                               ",
"                                ! ( f I.3X1X1XU.D.i.u.<.5.;.-.-.-.-.-.-.@.5.<.t.M.D.U.3X1X3XI.f ( Q                             ",
"                              ) . j.E.<X1X1X1XN.y.u.u.w.f.@.-.-.-.$.;.-.@.w.0.y.y.y.V.3X2X2X>XE.A . ^                           ",
"                              ) . c.>X,X1X,X,Xj.i 8.q.f.f.,.2.$.-.$.-.-.@.<.Z.q.8.y.N.,X,X2X,X>XE . )                           ",
"                              G.. x.3X1X2XW.T.f @ 7.g.g.f.s.f.@.-.-.-.-.-.=.4.g.w.t.N.R.>X1X2X3X( X G.                          ",
"                              G.. x.3X1X1XY.V.q @ 7.f.f.f.<.,.$.-.-.$.,.,.,.<.f.r.i J S.U.2X1X3Xl.. G.                          ",
"                              ) . x.2X1X2XN.t.0 @ 7.f.f.f.$.-.-.-.-.@.s.f.w.f.g.` @ 0 i.V.3X1X3Xl.. H.                          ",
"                              G.. x.2X1X2Xj.i ; + 7.f.f.f.<.,.<.,.-.$.,.,.,.<.d.` + ; i z.3X2X3Xl.. H.                          ",
"                              G.. x.2X2X4XC . @ @ ' p.p.p.p.p.p.p.&.*.*.*.*.&.p.` X O . R 3X2X4Xl.. J.                          ",
"                              G.. x.3X<X>XC . S S |.oXXXXXXXoXoXXX#X X X X X.XoXOX~.K . R 3X,X>XE . J.                          ",
"                              G.. x.4X>XR.C . F /.%X-X-X-X&X&X;X-X*X&X&X;X-X-X-X;X;X].X R 4X>XE.E . J.                          ",
"                              G.. q A C C 1 o ~.+X%X=X=X=X{._.[._._.[.[.{.=X=X=X=X=X].o 6 R C C 6 . J.                          ",
"                              ) . . . . @ @ o }.;X-X=X-X=X/.^.^.!.!.!.^.'.;X=X=X=X;X].o O . . . . . H.                          ",
"                                Q U U I ) B O (._.%X=X[._.^.^.^.^.^.^.^./.'.{.=X%X_.K O N :XK.P.P.P.K.                          ",
"                                          Y . F ^.%X=X/.^.^.^.!.!.!.^.^.^.^.'.=X+X(.D X ! G.                                    ",
"                                          I X F ^.$X=X'.^.^./.#X#X#X#X^.^.^.'.-X+X^.D X Q                                       ",
"                                          I . F ^.$X=X`.^././.        ^.^.^.'.=X+X^.D . Q                                       ",
"                                            ) L 7 @X=X`.^.9 e         8 9 ^.'.;X}., P )                                         ",
"                                              N X @X=X`.(.= >         - 7 ^.'.;X}.. I                                           ",
"                                              N o 8 9 7 = + >         - - 7 7 9 7 @ I                                           ",
"                                            H.N o + O + + - :         > - + + + + @ Y :X                                        ",
"                                          ! : - + + + + %               Q + + + + + ; : /                                       ",
"                                          Y @ # + + + + %                 + + + + + + @ Q                                       "
};