/* XPM */
static char *_ed869fda23d4531d00568eeccb3deec7mI08hqjQLBqZaEb[] = {
/* columns rows colors chars-per-pixel */
"64 64 198 2 ",
"   c None",
".  c #020204",
"X  c #060708",
"o  c #0B0708",
"O  c #070909",
"+  c #0C0C0C",
"@  c #0B0703",
"#  c #140E0C",
"$  c #1C0D0D",
"%  c #17110E",
"&  c #1B120F",
"*  c #0A0B12",
"=  c #0A0B18",
"-  c #0D1318",
";  c #131513",
":  c #1A1D19",
">  c #1D1614",
",  c #0F100F",
"<  c #28160F",
"1  c #231312",
"2  c #2A1616",
"3  c #2B1A17",
"4  c #341D1B",
"5  c #3B1E1B",
"6  c #381F17",
"7  c #200E1D",
"8  c #1D221D",
"9  c #3B2116",
"0  c #3D2119",
"q  c #2A241D",
"w  c #111D31",
"e  c #3A1A2A",
"r  c #2C2C26",
"t  c #382C23",
"y  c #2E362D",
"u  c #35382D",
"i  c #393A31",
"p  c #411F1D",
"a  c #47231C",
"s  c #54241E",
"d  c #6A2E0E",
"f  c #6B2E10",
"g  c #63271A",
"h  c #73381F",
"j  c #4E1824",
"k  c #581B26",
"l  c #711D32",
"z  c #681D2C",
"x  c #4D2422",
"c  c #592725",
"v  c #563A2E",
"b  c #5C3E35",
"n  c #612A26",
"m  c #662E2A",
"M  c #692F2B",
"N  c #6D312C",
"B  c #75362A",
"V  c #7B3A2A",
"C  c #78233A",
"Z  c #3D483B",
"A  c #43463A",
"S  c #5A4A38",
"D  c #7C463A",
"F  c #61523D",
"G  c #162446",
"H  c #16274A",
"J  c #172E59",
"K  c #253F56",
"L  c #1F397E",
"P  c #7C3048",
"I  c #124F7E",
"U  c #114A75",
"Y  c #104B76",
"T  c #24446C",
"R  c #495646",
"E  c #4D5B4A",
"W  c #505F4D",
"Q  c #544C43",
"!  c #6C5A43",
"~  c #665741",
"^  c #715F47",
"/  c #644D48",
"(  c #51604E",
")  c #556552",
"_  c #5C6D5C",
"`  c #5A6855",
"'  c #5F705B",
"]  c #63715C",
"[  c #72755C",
"{  c #7B674C",
"}  c #647761",
"|  c #697C65",
" . c #95303E",
".. c #8A3633",
"X. c #A4372D",
"o. c #8A4328",
"O. c #91462A",
"+. c #96492A",
"@. c #9D4D2A",
"#. c #884B3D",
"$. c #A14F2B",
"%. c #A35935",
"&. c #BC473E",
"*. c #F55F12",
"=. c #F46115",
"-. c #FB6315",
";. c #CA4B3A",
":. c #DD4A33",
">. c #D74239",
",. c #D94738",
"<. c #D65532",
"1. c #E75426",
"2. c #E54E31",
"3. c #E1492F",
"4. c #D76937",
"5. c #9A2D5D",
"6. c #842F42",
"7. c #AB305B",
"8. c #A6315B",
"9. c #AB305A",
"0. c #842B64",
"q. c #8B306B",
"w. c #A32F60",
"e. c #C62E55",
"r. c #C63153",
"t. c #CA3154",
"y. c #CF325B",
"u. c #CF3751",
"i. c #895B46",
"p. c #B54F52",
"a. c #8A7354",
"s. c #977B5C",
"d. c #8A674D",
"f. c #A4684C",
"g. c #B46D44",
"h. c #A67559",
"j. c #AA775B",
"k. c #B46F5A",
"l. c #B75C68",
"z. c #B07F60",
"x. c #B27160",
"c. c #CA4C49",
"v. c #C07D51",
"b. c #E46B48",
"n. c #CD716B",
"m. c #6D816B",
"M. c #798E74",
"N. c #758B71",
"B. c #7E957A",
"V. c #7C9277",
"C. c #71866D",
"Z. c #9F8462",
"A. c #81997D",
"S. c #A28663",
"D. c #AB8565",
"F. c #BB9B71",
"G. c #B38D69",
"H. c #C5926E",
"J. c #C69B73",
"K. c #D28B70",
"L. c #D1A27A",
"P. c #EDA375",
"I. c #F4A679",
"U. c #F3B07F",
"Y. c #EC8D5E",
"T. c #125182",
"R. c #234294",
"E. c #1A59A0",
"W. c #214EA3",
"Q. c #2154A9",
"!. c #1C69BE",
"~. c #1D67BD",
"^. c #1974C9",
"/. c #1D69C1",
"(. c #1588DF",
"). c #3F81D6",
"_. c #1695F5",
"`. c #1599FB",
"'. c #4989C3",
"]. c #4383C7",
"[. c #859D80",
"{. c #CC8C80",
"}. c #EF9A82",
"|. c #DBB181",
" X c #F6BD88",
".X c #F5B885",
"XX c #E7B688",
"oX c #F7C28C",
"OX c #F9C58D",
"+X c #FCCB92",
"@X c #FDD197",
"#X c #FDD197",
"$X c #FED69A",
"%X c #FED59A",
"&X c #FED99D",
"*X c #FEDA9D",
"=X c #FEDEA0",
"-X c #FEE4A4",
/* pixels */
"                                                  X + + + + + + + + + X                                                         ",
"                                                A + % % % & & % % % % +                                                         ",
"                                          + ; ; q n B @.+.+.+.+.+.+.V c 4 ; ; + R                                               ",
"                                          % & % 6 N V $.@.@.@.$.@.$.o.N 5 ; # # `                                               ",
"                                  + ; , 9 @.+.+.@.@.@.@.@.@.@.@.@.@.@.@.+.@.V n 4 O                                             ",
"                                  % & & a $.$.@.@.@.@.@.@.@.@.@.@.@.@.@.$.@...N 5 o `                                           ",
"                          o + + 3 @.+.@.+.@.@.@.@.@.@.@.@.@.@.@.@.@.@.@.@.@.@.@.B m 3 X                                         ",
"                          X # ; 9 +.+.@.@.@.@.@.@.@.@.@.@.@.@.@.@.@.@.@.@.@.@.@.V B 3 X                                         ",
"                          O 1 m m m B $.@.@.@.@.@.@.@.@.@.@.@.@.@.@.@.@.+.$.@.@.@.$.9 .                                         ",
"                          8 r c c m B O.+.@.@.@.@.@.@.@.@.@.@.@.@.@.@.@.@.$.@.$.@.$.9 .                                         ",
"                              X 1 N m m V $.@.@.@.@.@.@.@.@.@.@.@.@.@.@.@.@.@.@.@.$.9 X                                         ",
"                              8 r c c m B $.@.@.@.@.@.@.@.@.@.@.@.@.@.@.@.@.@.@.+.+.9 .                                         ",
"                                  . 1 m V @.@.@.@.@.@.@.@.@.@.@.@.@.@.@.@.@.@.$.V m 2 X                                         ",
"                                  < a B V @.@.@.@.@.@.@.@.@.@.@.@.@.@.@.+.O.O.+.B m 2 X                                         ",
"                          X X X < $.$.@.@.@.@.@.@.@.@.@.@.@.+.+.@.@.@.$.D n m m m m 3 .                                         ",
"                          O # 1 9 +.+.@.@.@.%.g.g.g.g.g.g.g.g.g.%.O.O.O.h m m m m N 4 %                                         ",
"                          X & N M m B $.@.@.g.=X%X&X&X%X&X%X%X&Xz.n M n m m m m m m m N $ .                                     ",
"                          y i x x x n O.o.B f.*XoXF.F.F.|.#X#X%Xz.n M M m m m m m m m m 2 X                                     ",
"                              . X X 1 M a . F -XZ.. . . ! &X#X&Xz.n n n m m M m m m m N 2 .                                     ",
"                              r u y i x 0 . F =XZ.. q S Z.&X#X&Xz.n #.d.D m m m m m m m 5 1                                     ",
"                                      . O X F *XS.. ^ =X%X#X#X%Xj.k z.=Xh.n m m m m N m M N $ . )                               ",
"                                      u i X S -XS.. ^ *X#X#X#X%XH.i.J.&Xh.n m m m m m m x x A A                                 ",
"                                        ' . F =XZ.. F *X#X#X#X%X.XP..X&Xh.n m m m m m N 1 . '                                   ",
"                                        _ . F *XJ.S D.%X#X#X#X#X X.XoX&Xh.n m m m m m m 5 2 ) E                                 ",
"                                        ] . F &X#X&X%X#X#X#X#X#X#X#X*X*Xj.n m M m m m m M B $ . E                               ",
"                                        m.. F &X#X#X#X#X#X#X#X#X#X#XL.H.i.m m m m m m m x 5 Q R                                 ",
"                                        m.. S =X%X&X%X#X#X#X#X#X#X=Xj.k m m m m m m M M 1 . E                                   ",
"                                        ] ) [ s.Z.Z.F.#X#X#X#X#XOXoXh.n m m m m m m s p A i                                     ",
"                                            V.. . . ~ *X#X#X#X%X.XP.f.c m m M M M M 1 .                                         ",
"                                            M.. t { G.*X#X%XOXoXK.k.#.n m M x 5 5 5 i                                           ",
"                                            V.. F -X=X*X&X*X XI.f.c m m m M 3 o X .                                             ",
"                                            A.} [ a.a.{ D.L.K.K.p. . . .6.P 4 O                                                 ",
"                                                | . . . v z.x.x.p.t.t.t.w.q.e .                                                 ",
"                                                  Z Z X m c.c.4.4.:.:.:.;.c.s .                                                 ",
"                                                    ` . k y.:.-.*.=.=.=.-.-.d .                                                 ",
"                                                m.) / l  .,.1.=.*.*.=.=.=.=.X.l Q Z                                             ",
"                                                B.. k y.,.=.=.=.=.=.=.=.=.=.,.y.j . E                                           ",
"                                                A.. g 2.1.=.=.=.=.=.=.*.=.=.,.t.j . E                                           ",
"                                                B.. f -.=.=.=.=.=.*.*.*.*.*.>.e.j . E                                           ",
"                                                [.. f -.*.=.=.=.;.p.;.>.b.Y.Y.}.b . W                                           ",
"                                                A.X g -.=.=.*.=.&.0.7.e.n.P. X=X~ . W                                           ",
"                                                B.. f -.=.*.*.*.;.9.9.5.K.OX+X&XF . )                                           ",
"                                                A.X f -.*.=.=.*.3.r.8.0.{.*X#X&XF . )                                           ",
"                                                B.X f -.=.=.2.c.u.e.8.0.{.%X#X&XF . )                                           ",
"                                                A.. f -.=.=.:.e.r.r.8.0.K.#X#X&X~ . )                                           ",
"                                                A.. f -.=.=.:.t.9.5.l.K.XX%X X.XS . ]                                           ",
"                                                A.. f -.*.=.2.t.9.0.n.P..X#X.X}.v . W                                           ",
"                                                B.. f -.=.=.2.y.l 7 s.+X+X=Xd.t ]                                               ",
"                                                B.. f -.*.*.3.y.n . a.*X#X%X~ . m.                                              ",
"                                                B.. K '.'.'.].^.T . d.U.oX*X! . N.                                              ",
"                                                A.. U `.`._._.`.I . i.I. X*X^ . N.                                              ",
"                                                V.. H Q./._._.`.I @ q 0 t i 7 . M.                                              ",
"                                                M.. G R.~._._.`.I @ + O + o + . m.                                              ",
"                                                    ` = T.`._._.(.^.E.L w @ | |                                                 ",
"                                                    ] @ U `._._._.`./.R.G . A.                                                  ",
"                                                    } . H W./.`._.`./.R.G . B.                                                  ",
"                                                    | @ H R.!.`._._.~.R.G . V.                                                  ",
"                                                        _ + T.`.^.R.J * m.M.                                                    ",
"                                                        _ . U _.!.R.H . M.                                                      ",
"                                                        ` . - w - - - O M.                                                      ",
"                                                        ] O + + + + + + |                                                       ",
"                                                [.; 8 8 ; o + + + o                                                             ",
"                                                M.; ; ; ; + + + + X E         ]                                                 ",
"                                                        R O + + + + ; : : : : ; A.                                              "
};